<svg width="76" height="76" viewBox="0 0 76 76" fill="none" xmlns="http://www.w3.org/2000/svg">
<g clip-path="url(#clip0_9342_89076)">
<rect width="76" height="76" rx="12" fill="url(#paint0_linear_9342_89076)"/>
<path d="M47.7881 44.9244C46.7561 44.9244 45.8735 44.5569 45.1401 43.8219C44.4068 43.0872 44.0401 42.2039 44.0401 41.1719C44.0401 40.1402 44.4076 39.2577 45.1426 38.5244C45.8773 37.791 46.7625 37.4244 47.7981 37.4244C48.8181 37.4244 49.6968 37.7917 50.4341 38.5264C51.1715 39.2614 51.5401 40.1447 51.5401 41.1764C51.5401 42.2084 51.1708 43.091 50.4321 43.8244C49.6931 44.5577 48.8118 44.9244 47.7881 44.9244ZM47.7781 47.7699C48.7111 47.7699 49.6273 47.8615 50.5266 48.0449C51.4263 48.2282 52.3175 48.5144 53.2001 48.9034C53.8888 49.2027 54.4725 49.6364 54.9511 50.2044C55.4301 50.772 55.6696 51.4424 55.6696 52.2154C55.6696 52.6294 55.5275 52.9719 55.2431 53.2429C54.9588 53.5139 54.6205 53.6494 54.2281 53.6494L41.2781 53.6994C40.8885 53.6994 40.5631 53.5639 40.3021 53.2929C40.0411 53.0219 39.9106 52.6794 39.9106 52.2654C39.9106 51.4934 40.1476 50.8175 40.6216 50.2379C41.0956 49.6579 41.6785 49.2075 42.3701 48.8869C43.2358 48.5089 44.1116 48.2282 44.9976 48.0449C45.8836 47.8615 46.8105 47.7699 47.7781 47.7699ZM20.6096 55.6994C19.6896 55.6994 18.892 55.3615 18.2166 54.6859C17.541 54.0105 17.2031 53.2129 17.2031 52.2929V22.5079C17.2031 21.5845 17.541 20.784 18.2166 20.1064C18.892 19.4284 19.6896 19.0894 20.6096 19.0894H50.3946C51.318 19.0894 52.1185 19.4284 52.7961 20.1064C53.4741 20.784 53.8131 21.5845 53.8131 22.5079V31.9689C53.8131 32.4459 53.6463 32.8407 53.3126 33.1534C52.9786 33.4657 52.5705 33.6219 52.0881 33.6219C51.6055 33.6219 51.2025 33.4582 50.8791 33.1309C50.5561 32.8035 50.3946 32.3995 50.3946 31.9189V22.5079H20.6096V42.5404H27.8041C28.3438 42.5404 28.7928 42.5984 29.1511 42.7144C29.5091 42.8304 29.7898 43.081 29.9931 43.4664C30.3968 44.15 30.9118 44.7455 31.5381 45.2529C32.1648 45.7605 32.847 46.1454 33.5846 46.4074C33.866 46.504 34.0966 46.6779 34.2766 46.9289C34.4566 47.1799 34.5466 47.451 34.5466 47.7424C34.5466 48.292 34.3326 48.7212 33.9046 49.0299C33.477 49.3385 33.0091 49.3975 32.5011 49.2069C31.5471 48.8959 30.6705 48.4344 29.8711 47.8224C29.0715 47.21 28.3818 46.4494 27.8021 45.5404H20.6096V52.2929H32.8436C33.326 52.2929 33.7305 52.4574 34.0571 52.7864C34.3835 53.1154 34.5466 53.5215 34.5466 54.0049C34.5466 54.4882 34.3835 54.8914 34.0571 55.2144C33.7305 55.5377 33.326 55.6994 32.8436 55.6994H20.6096ZM26.9121 30.4244H44.1041C44.5211 30.4244 44.8755 30.2797 45.1671 29.9904C45.4585 29.7014 45.6041 29.343 45.6041 28.9154C45.6041 28.488 45.4585 28.1327 45.1671 27.8494C44.8755 27.566 44.5211 27.4244 44.1041 27.4244H26.9121C26.4871 27.4244 26.1308 27.5689 25.8431 27.8579C25.5558 28.1472 25.4121 28.5055 25.4121 28.9329C25.4121 29.3605 25.5558 29.716 25.8431 29.9994C26.1308 30.2827 26.4871 30.4244 26.9121 30.4244ZM26.9166 37.6244H38.6681C39.0961 37.6244 39.454 37.4797 39.7416 37.1904C40.029 36.9014 40.1726 36.543 40.1726 36.1154C40.1726 35.688 40.029 35.3327 39.7416 35.0494C39.454 34.766 39.0961 34.6244 38.6681 34.6244H26.9166C26.4886 34.6244 26.1308 34.7689 25.8431 35.0579C25.5558 35.3472 25.4121 35.7055 25.4121 36.1329C25.4121 36.5605 25.5558 36.916 25.8431 37.1994C26.1308 37.4827 26.4886 37.6244 26.9166 37.6244Z" fill="#616161"/>
</g>
<defs>
<linearGradient id="paint0_linear_9342_89076" x1="38" y1="0" x2="38" y2="76" gradientUnits="userSpaceOnUse">
<stop stop-color="#F2F9E9"/>
<stop offset="1" stop-color="#E5F3D9"/>
</linearGradient>
<clipPath id="clip0_9342_89076">
<rect width="76" height="76" rx="12" fill="white"/>
</clipPath>
</defs>
</svg>
