<svg width="76" height="76" viewBox="0 0 76 76" fill="none" xmlns="http://www.w3.org/2000/svg">
<g clip-path="url(#clip0_9342_89052)">
<rect width="76" height="76" rx="12" fill="url(#paint0_linear_9342_89052)"/>
<path d="M42.2229 25.6588C41.7248 25.6588 41.3108 25.4901 40.9809 25.1527C40.651 24.815 40.486 24.3983 40.486 23.9027C40.486 23.4071 40.651 22.9927 40.9809 22.6596C41.3108 22.3268 41.7248 22.1604 42.2229 22.1604H57.549C58.0442 22.1604 58.4595 22.3291 58.7947 22.6665C59.13 23.0042 59.2976 23.4225 59.2976 23.9213C59.2976 24.4173 59.13 24.8307 58.7947 25.1617C58.4595 25.4931 58.0442 25.6588 57.549 25.6588H42.2229ZM42.2229 34.3132C41.7248 34.3132 41.3108 34.1445 40.9809 33.8071C40.651 33.4697 40.486 33.0522 40.486 32.5544C40.486 32.057 40.651 31.645 40.9809 31.3182C41.3108 30.9911 41.7248 30.8276 42.2229 30.8276H57.549C58.0442 30.8276 58.4595 30.9934 58.7947 31.3251C59.13 31.6569 59.2976 32.073 59.2976 32.5736C59.2976 33.071 59.13 33.4852 58.7947 33.8162C58.4595 34.1475 58.0442 34.3132 57.549 34.3132H42.2229ZM42.2229 42.9676C41.7309 42.9676 41.3185 42.8005 40.9857 42.4663C40.6525 42.1325 40.486 41.7185 40.486 41.2243C40.486 40.7304 40.6525 40.3187 40.9857 39.9891C41.3185 39.6596 41.7309 39.4948 42.2229 39.4948H57.549C58.0442 39.4948 58.4595 39.6619 58.7947 39.9961C59.13 40.3299 59.2976 40.7439 59.2976 41.2381C59.2976 41.7319 59.13 42.1437 58.7947 42.4732C58.4595 42.8028 58.0442 42.9676 57.549 42.9676H42.2229ZM29.0479 41.6037C27.1562 41.6037 25.5908 40.9807 24.3516 39.7348C23.1121 38.4885 22.4923 36.9195 22.4923 35.0279C22.4923 33.1362 23.1142 31.5685 24.358 30.3247C25.6015 29.0812 27.1671 28.4595 29.0548 28.4595C30.9464 28.4595 32.5141 29.0821 33.758 30.3274C35.0021 31.5726 35.6242 33.1405 35.6242 35.0311C35.6242 36.9248 35.0011 38.4938 33.7548 39.738C32.5088 40.9818 30.9399 41.6037 29.0479 41.6037ZM16 53.2946V51.3155C16 50.5978 16.1721 49.9143 16.5162 49.2651C16.86 48.6159 17.3199 48.1545 17.8961 47.881C19.5096 46.7287 21.2774 45.8733 23.1995 45.3149C25.1216 44.7565 27.0718 44.4773 29.05 44.4773C31.0278 44.4773 32.9697 44.7831 34.8755 45.3948C36.7813 46.0064 38.5628 46.8351 40.2199 47.881C40.7609 48.2609 41.2122 48.7477 41.5737 49.3412C41.9356 49.9351 42.1165 50.5932 42.1165 51.3155V53.2946C42.1165 53.815 41.9421 54.2494 41.5934 54.5978C41.245 54.9462 40.815 55.1204 40.3035 55.1204H17.813C17.3015 55.1204 16.8713 54.9462 16.5226 54.5978C16.1742 54.2494 16 53.815 16 53.2946ZM19.2073 51.0494V51.6348H38.897V51.0494C37.5134 50.127 35.9169 49.382 34.1076 48.8144C32.2983 48.2467 30.6131 47.9629 29.0521 47.9629C27.4911 47.9629 25.7971 48.2467 23.9701 48.8144C22.143 49.382 20.5554 50.127 19.2073 51.0494ZM29.0521 38.1181C29.9745 38.1181 30.7195 37.8321 31.2872 37.2603C31.8548 36.6884 32.1386 35.9455 32.1386 35.0316C32.1386 34.1092 31.8548 33.3642 31.2872 32.7966C30.7195 32.2289 29.9745 31.9451 29.0521 31.9451C28.1297 31.9451 27.3847 32.2289 26.8171 32.7966C26.2495 33.3642 25.9656 34.1092 25.9656 35.0316C25.9656 35.9455 26.2495 36.6884 26.8171 37.2603C27.3847 37.8321 28.1297 38.1181 29.0521 38.1181Z" fill="#616161"/>
</g>
<defs>
<linearGradient id="paint0_linear_9342_89052" x1="38" y1="0" x2="38" y2="76" gradientUnits="userSpaceOnUse">
<stop stop-color="#F2F9E9"/>
<stop offset="1" stop-color="#E5F3D9"/>
</linearGradient>
<clipPath id="clip0_9342_89052">
<rect width="76" height="76" rx="12" fill="white"/>
</clipPath>
</defs>
</svg>
