<svg width="76" height="76" viewBox="0 0 76 76" fill="none" xmlns="http://www.w3.org/2000/svg">
<g clip-path="url(#clip0_9342_89101)">
<rect width="76" height="76" rx="12" fill="url(#paint0_linear_9342_89101)"/>
<path fill-rule="evenodd" clip-rule="evenodd" d="M23.2143 23.1147C21.6363 23.1147 20.3571 24.3938 20.3571 25.9718V51.6861C20.3571 53.264 21.6363 54.5432 23.2143 54.5432H51.7857C53.3637 54.5432 54.6429 53.264 54.6429 51.6861V25.9718C54.6429 24.3938 53.3637 23.1147 51.7857 23.1147H23.2143ZM17.5 25.9718C17.5 22.8159 20.0584 20.2575 23.2143 20.2575H51.7857C54.9416 20.2575 57.5 22.8159 57.5 25.9718V51.6861C57.5 54.842 54.9416 57.4004 51.7857 57.4004H23.2143C20.0584 57.4004 17.5 54.842 17.5 51.6861V25.9718Z" fill="#616161"/>
<path d="M41.0725 37.4004C42.256 37.4004 43.2154 36.441 43.2154 35.2575C43.2154 34.0741 42.256 33.1147 41.0725 33.1147C39.8891 33.1147 38.9297 34.0741 38.9297 35.2575C38.9297 36.441 39.8891 37.4004 41.0725 37.4004Z" fill="#616161"/>
<path d="M48.2132 37.4004C49.3966 37.4004 50.356 36.441 50.356 35.2575C50.356 34.0741 49.3966 33.1147 48.2132 33.1147C47.0297 33.1147 46.0703 34.0741 46.0703 35.2575C46.0703 36.441 47.0297 37.4004 48.2132 37.4004Z" fill="#616161"/>
<path d="M41.0725 44.5432C42.256 44.5432 43.2154 43.5838 43.2154 42.4004C43.2154 41.2169 42.256 40.2575 41.0725 40.2575C39.8891 40.2575 38.9297 41.2169 38.9297 42.4004C38.9297 43.5838 39.8891 44.5432 41.0725 44.5432Z" fill="#616161"/>
<path d="M48.2132 44.5432C49.3966 44.5432 50.356 43.5838 50.356 42.4004C50.356 41.2169 49.3966 40.2575 48.2132 40.2575C47.0297 40.2575 46.0703 41.2169 46.0703 42.4004C46.0703 43.5838 47.0297 44.5432 48.2132 44.5432Z" fill="#616161"/>
<path d="M26.7874 44.5432C27.9709 44.5432 28.9302 43.5838 28.9302 42.4004C28.9302 41.2169 27.9709 40.2575 26.7874 40.2575C25.6039 40.2575 24.6445 41.2169 24.6445 42.4004C24.6445 43.5838 25.6039 44.5432 26.7874 44.5432Z" fill="#616161"/>
<path d="M33.928 44.5432C35.1115 44.5432 36.0709 43.5838 36.0709 42.4004C36.0709 41.2169 35.1115 40.2575 33.928 40.2575C32.7445 40.2575 31.7852 41.2169 31.7852 42.4004C31.7852 43.5838 32.7445 44.5432 33.928 44.5432Z" fill="#616161"/>
<path d="M26.7874 51.6861C27.9709 51.6861 28.9302 50.7267 28.9302 49.5432C28.9302 48.3598 27.9709 47.4004 26.7874 47.4004C25.6039 47.4004 24.6445 48.3598 24.6445 49.5432C24.6445 50.7267 25.6039 51.6861 26.7874 51.6861Z" fill="#616161"/>
<path d="M33.928 51.6861C35.1115 51.6861 36.0709 50.7267 36.0709 49.5432C36.0709 48.3598 35.1115 47.4004 33.928 47.4004C32.7445 47.4004 31.7852 48.3598 31.7852 49.5432C31.7852 50.7267 32.7445 51.6861 33.928 51.6861Z" fill="#616161"/>
<path d="M41.0725 51.6861C42.256 51.6861 43.2154 50.7267 43.2154 49.5432C43.2154 48.3598 42.256 47.4004 41.0725 47.4004C39.8891 47.4004 38.9297 48.3598 38.9297 49.5432C38.9297 50.7267 39.8891 51.6861 41.0725 51.6861Z" fill="#616161"/>
<path fill-rule="evenodd" clip-rule="evenodd" d="M26.0731 17.4004C26.8621 17.4004 27.5017 18.04 27.5017 18.829V21.6861C27.5017 22.4751 26.8621 23.1147 26.0731 23.1147C25.2841 23.1147 24.6445 22.4751 24.6445 21.6861V18.829C24.6445 18.04 25.2841 17.4004 26.0731 17.4004Z" fill="#616161"/>
<path fill-rule="evenodd" clip-rule="evenodd" d="M48.9286 17.4004C49.7175 17.4004 50.3571 18.04 50.3571 18.829V21.6861C50.3571 22.4751 49.7175 23.1147 48.9286 23.1147C48.1396 23.1147 47.5 22.4751 47.5 21.6861V18.829C47.5 18.04 48.1396 17.4004 48.9286 17.4004Z" fill="#616161"/>
<path fill-rule="evenodd" clip-rule="evenodd" d="M18.9297 27.4004H56.0725V30.2575H18.9297V27.4004Z" fill="#616161"/>
</g>
<defs>
<linearGradient id="paint0_linear_9342_89101" x1="38" y1="0" x2="38" y2="76" gradientUnits="userSpaceOnUse">
<stop stop-color="#F2F9E9"/>
<stop offset="1" stop-color="#E5F3D9"/>
</linearGradient>
<clipPath id="clip0_9342_89101">
<rect width="76" height="76" rx="12" fill="white"/>
</clipPath>
</defs>
</svg>
