<svg width="76" height="76" viewBox="0 0 76 76" fill="none" xmlns="http://www.w3.org/2000/svg">
<g clip-path="url(#clip0_9342_89135)">
<rect width="76" height="76" rx="12" fill="url(#paint0_linear_9342_89135)"/>
<path d="M40.7355 56.1343C39.8681 56.9464 38.7088 57.4004 37.5022 57.4004C36.2957 57.4004 35.1364 56.9464 34.269 56.1343C26.326 48.6524 15.6815 40.2942 20.8725 28.1597C23.6793 21.5987 30.4167 17.4004 37.5022 17.4004C44.5878 17.4004 51.3252 21.5987 54.1319 28.1597C59.3164 40.2789 48.698 48.6781 40.7355 56.1343Z" stroke="#616161" stroke-width="2.5"/>
<path d="M44.5 35.4004C44.5 39.2664 41.366 42.4004 37.5 42.4004C33.634 42.4004 30.5 39.2664 30.5 35.4004C30.5 31.5344 33.634 28.4004 37.5 28.4004C41.366 28.4004 44.5 31.5344 44.5 35.4004Z" stroke="#616161" stroke-width="2.5"/>
</g>
<defs>
<linearGradient id="paint0_linear_9342_89135" x1="38" y1="0" x2="38" y2="76" gradientUnits="userSpaceOnUse">
<stop stop-color="#F2F9E9"/>
<stop offset="1" stop-color="#E5F3D9"/>
</linearGradient>
<clipPath id="clip0_9342_89135">
<rect width="76" height="76" rx="12" fill="white"/>
</clipPath>
</defs>
</svg>
